<?xml version="1.0" encoding="UTF-8"?>
<!DOCTYPE svg PUBLIC "-//W3C//DTD SVG 1.1//EN" "http://www.w3.org/Graphics/SVG/1.1/DTD/svg11.dtd">
<svg xmlns="http://www.w3.org/2000/svg" version="1.1" width="100px" height="100px" style="shape-rendering:geometricPrecision; text-rendering:geometricPrecision; image-rendering:optimizeQuality; fill-rule:evenodd; clip-rule:evenodd" xmlns:xlink="http://www.w3.org/1999/xlink">
<g><path style="opacity:0.938" fill="#000000" d="M 38.5,-0.5 C 45.8333,-0.5 53.1667,-0.5 60.5,-0.5C 63.0828,0.539046 65.5828,1.87238 68,3.5C 69.3314,10.8216 70.4981,18.1549 71.5,25.5C 71,25.8333 70.5,26.1667 70,26.5C 55.74,25.5342 41.5733,25.2008 27.5,25.5C 28.5019,18.1549 29.6686,10.8216 31,3.5C 33.4172,1.87238 35.9172,0.539046 38.5,-0.5 Z M 47.5,7.5 C 48.8333,7.5 50.1667,7.5 51.5,7.5C 51.5,9.5 51.5,11.5 51.5,13.5C 53.5,13.5 55.5,13.5 57.5,13.5C 57.5,14.8333 57.5,16.1667 57.5,17.5C 55.5,17.5 53.5,17.5 51.5,17.5C 51.5,19.5 51.5,21.5 51.5,23.5C 50.1667,23.5 48.8333,23.5 47.5,23.5C 47.5,21.5 47.5,19.5 47.5,17.5C 45.5,17.5 43.5,17.5 41.5,17.5C 41.5,16.1667 41.5,14.8333 41.5,13.5C 43.5,13.5 45.5,13.5 47.5,13.5C 47.5,11.5 47.5,9.5 47.5,7.5 Z"/></g>
<g><path style="opacity:0.935" fill="#000000" d="M 30.5,28.5 C 43.1643,29.6624 55.8309,29.8291 68.5,29C 73.8656,40.6919 70.5323,49.6919 58.5,56C 44.3298,60.3283 34.1631,55.8283 28,42.5C 27.3333,38.5 27.3333,34.5 28,30.5C 28.9947,29.9341 29.828,29.2674 30.5,28.5 Z"/></g>
<g><path style="opacity:0.881" fill="#000000" d="M 41.5,58.5 C 48.9384,58.1511 56.2717,58.8178 63.5,60.5C 59.3661,71.4312 54.6994,82.0979 49.5,92.5C 44.647,81.9504 39.9804,71.2837 35.5,60.5C 37.6309,59.8313 39.6309,59.1646 41.5,58.5 Z"/></g>
<g><path style="opacity:0.96" fill="#000000" d="M 95.5,99.5 C 64.8333,99.5 34.1667,99.5 3.5,99.5C 3.33371,92.4921 3.50038,85.4921 4,78.5C 6.59664,73.4475 10.43,69.6142 15.5,67C 20.7199,64.5568 26.0532,62.3901 31.5,60.5C 33.1461,61.7786 34.3128,63.4453 35,65.5C 39.3709,76.4057 43.8709,87.239 48.5,98C 49.4491,98.6172 50.2825,98.4506 51,97.5C 56.0036,84.836 61.5036,72.5027 67.5,60.5C 76.761,62.8792 84.9277,67.2125 92,73.5C 93,75.1667 94,76.8333 95,78.5C 95.4996,85.4921 95.6663,92.4921 95.5,99.5 Z"/></g>
</svg>
