<?xml version="1.0" encoding="UTF-8"?>
<!DOCTYPE svg PUBLIC "-//W3C//DTD SVG 1.1//EN" "http://www.w3.org/Graphics/SVG/1.1/DTD/svg11.dtd">
<svg xmlns="http://www.w3.org/2000/svg" version="1.1" width="100px" height="100px" style="shape-rendering:geometricPrecision; text-rendering:geometricPrecision; image-rendering:optimizeQuality; fill-rule:evenodd; clip-rule:evenodd" xmlns:xlink="http://www.w3.org/1999/xlink">
<g><path style="opacity:0.945" fill="#000000" d="M 43.5,-0.5 C 47.5,-0.5 51.5,-0.5 55.5,-0.5C 65.8904,4.10111 69.7237,12.1011 67,23.5C 62.6195,33.9791 54.7862,37.8124 43.5,35C 32.0173,29.5832 28.5173,20.7499 33,8.5C 35.5054,4.18881 39.0054,1.18881 43.5,-0.5 Z"/></g>
<g><path style="opacity:0.935" fill="#000000" d="M 83.5,99.5 C 59.1667,99.5 34.8333,99.5 10.5,99.5C 5.13232,96.273 2.46565,91.4397 2.5,85C 3.56248,76.8102 6.39581,69.3102 11,62.5C 15.6635,54.6639 21.1635,47.4973 27.5,41C 34.9002,39.8659 42.4002,39.3659 50,39.5C 67.2928,34.8077 78.6261,40.8077 84,57.5C 87.6261,68.919 88.9595,80.5857 88,92.5C 87.4697,95.585 85.9697,97.9183 83.5,99.5 Z M 34.5,43.5 C 38.1667,43.5 41.8333,43.5 45.5,43.5C 47.1825,52.8974 49.1825,62.2307 51.5,71.5C 56.5658,71.3399 61.5658,71.8399 66.5,73C 73.78,76.7315 76.28,82.5648 74,90.5C 72.6802,94.1816 70.1802,95.6816 66.5,95C 71.2745,91.3449 72.7745,86.5116 71,80.5C 68.4236,76.1186 64.5903,74.452 59.5,75.5C 57.1667,75.8333 54.8333,76.1667 52.5,76.5C 54.2509,82.6723 55.9175,88.839 57.5,95C 45.9238,95.8204 34.4238,95.6537 23,94.5C 21.0691,90.5726 20.2357,86.4059 20.5,82C 21.338,70.147 23.838,58.647 28,47.5C 30.0129,45.7518 32.1795,44.4185 34.5,43.5 Z"/></g>
</svg>
