<?xml version="1.0" encoding="UTF-8"?>
<!DOCTYPE svg PUBLIC "-//W3C//DTD SVG 1.1//EN" "http://www.w3.org/Graphics/SVG/1.1/DTD/svg11.dtd">
<svg xmlns="http://www.w3.org/2000/svg" version="1.1" width="100px" height="100px" style="shape-rendering:geometricPrecision; text-rendering:geometricPrecision; image-rendering:optimizeQuality; fill-rule:evenodd; clip-rule:evenodd" xmlns:xlink="http://www.w3.org/1999/xlink">
<g><path style="opacity:0.93" fill="#000000" d="M 7.5,7.5 C 20.1667,7.5 32.8333,7.5 45.5,7.5C 45.5,22.8333 45.5,38.1667 45.5,53.5C 40.8333,53.5 36.1667,53.5 31.5,53.5C 30.9652,60.1738 32.1319,66.5071 35,72.5C 41.2512,79.0107 48.4179,80.1773 56.5,76C 59.1059,74.0616 60.9392,71.5616 62,68.5C 63.3589,58.8906 63.8589,49.2239 63.5,39.5C 54.2306,38.2288 49.5639,32.8955 49.5,23.5C 49.8333,13.1667 55.1667,7.83333 65.5,7.5C 75.8333,7.83333 81.1667,13.1667 81.5,23.5C 81.4361,32.8955 76.7694,38.2288 67.5,39.5C 67.6665,49.8387 67.4998,60.172 67,70.5C 61.6574,81.7523 52.8241,85.9189 40.5,83C 34.3333,80.8333 30.1667,76.6667 28,70.5C 27.5006,64.8431 27.3339,59.1764 27.5,53.5C 24.8333,53.5 22.1667,53.5 19.5,53.5C 19.3335,62.8393 19.5002,72.1726 20,81.5C 20.2735,83.3289 21.1068,84.8289 22.5,86C 40.1005,87.6253 57.7672,87.9586 75.5,87C 77.3289,86.7265 78.8289,85.8932 80,84.5C 83.0579,73.9963 81.7246,64.3296 76,55.5C 75.3333,51.5 75.3333,47.5 76,43.5C 78.7418,37.1927 83.0751,35.8594 89,39.5C 91.4242,44.5698 92.0909,49.9031 91,55.5C 90.2178,58.0758 88.7178,60.0758 86.5,61.5C 85.6683,69.8134 85.1683,78.1468 85,86.5C 83.8333,88.3333 82.3333,89.8333 80.5,91C 60.5,91.6667 40.5,91.6667 20.5,91C 18.6667,89.8333 17.1667,88.3333 16,86.5C 15.5002,75.505 15.3335,64.505 15.5,53.5C 12.8333,53.5 10.1667,53.5 7.5,53.5C 7.5,38.1667 7.5,22.8333 7.5,7.5 Z M 61.5,12.5 C 72.3181,11.8169 77.1514,16.8169 76,27.5C 72.9596,33.6026 68.1263,35.7693 61.5,34C 55.3974,30.9596 53.2307,26.1263 55,19.5C 56.6941,16.6424 58.8607,14.309 61.5,12.5 Z"/></g>
<g><path style="opacity:0.849" fill="#000000" d="M 63.5,15.5 C 64.8333,15.5 66.1667,15.5 67.5,15.5C 69.0746,18.9578 69.5746,22.6245 69,26.5C 66.6667,27.8333 64.3333,27.8333 62,26.5C 61.4254,22.6245 61.9254,18.9578 63.5,15.5 Z"/></g>
</svg>
